<?xml version="1.0" standalone="no"?>
<!DOCTYPE svg PUBLIC "-//W3C//DTD SVG 20010904//EN"
 "http://www.w3.org/TR/2001/REC-SVG-20010904/DTD/svg10.dtd">
<svg version="1.0" xmlns="http://www.w3.org/2000/svg"
 width="287.000000pt" height="335.000000pt" viewBox="0 0 287.000000 335.000000"
 preserveAspectRatio="xMidYMid meet">

<g transform="translate(0.000000,335.000000) scale(0.100000,-0.100000)"
fill="#000000" stroke="none">
<path d="M1330 3151 l0 -110 28 -3 27 -3 3 -147 3 -148 -420 0 c-390 0 -423
-1 -482 -20 -82 -25 -145 -79 -184 -156 l-30 -59 -3 -275 -3 -275 246 -235
c135 -129 245 -239 245 -245 -1 -5 -95 -111 -210 -235 l-209 -225 -1 -127 0
-128 204 0 203 0 7 39 c5 32 18 50 73 100 37 34 72 61 78 61 5 0 78 -45 160
-100 l150 -100 230 0 230 0 156 104 155 103 72 -64 c50 -45 72 -72 72 -88 0
-56 -5 -55 221 -55 l209 0 0 124 0 123 -220 234 c-121 129 -220 239 -220 245
0 5 113 118 250 250 l251 239 -3 255 c-5 299 -13 334 -98 419 -85 85 -82 85
-580 91 l-435 5 0 145 0 145 28 3 27 3 0 110 0 109 -115 0 -115 0 0 -109z
m800 -948 l0 -88 -152 -152 -153 -153 -373 0 -374 0 -159 151 -159 152 0 88 0
89 685 0 685 0 0 -87z"/>
<path d="M1029 2176 c-2 -2 -3 -54 -1 -115 l3 -112 112 3 112 3 3 113 3 112
-114 0 c-63 0 -116 -2 -118 -4z"/>
<path d="M1640 2065 l0 -115 115 0 115 0 0 115 0 115 -115 0 -115 0 0 -115z"/>
<path d="M163 530 c-35 -21 -53 -67 -53 -136 0 -25 -6 -47 -15 -54 -19 -16
-20 -74 -1 -89 7 -6 16 -40 19 -76 3 -35 14 -76 23 -90 19 -29 74 -48 124 -43
35 3 35 3 35 53 0 44 -2 50 -25 55 -23 5 -25 11 -28 63 -3 51 -6 59 -28 67
-30 12 -30 18 0 30 22 8 25 16 28 67 3 52 5 58 28 63 22 5 25 12 28 58 l3 52
-53 0 c-35 0 -64 -7 -85 -20z"/>
<path d="M792 498 c3 -46 6 -53 28 -58 23 -5 25 -11 28 -63 3 -51 6 -59 28
-67 30 -12 30 -18 -1 -30 -22 -8 -25 -16 -25 -57 0 -55 -7 -69 -35 -74 -17 -4
-20 -12 -20 -54 0 -50 0 -50 35 -53 19 -2 52 1 72 8 48 14 68 51 68 123 0 41
5 58 20 72 12 11 20 31 20 50 0 19 -8 39 -20 50 -16 14 -20 31 -20 77 0 33 -5
68 -10 79 -16 29 -64 49 -120 49 l-51 0 3 -52z"/>
<path d="M387 498 c-16 -12 -17 -31 -15 -208 l3 -195 60 0 60 0 5 65 5 65 38
3 c55 5 67 -10 67 -79 l0 -59 60 0 60 0 0 94 c0 90 -1 95 -26 114 -25 18 -26
21 -15 55 16 47 5 100 -25 128 -22 21 -36 23 -142 27 -87 3 -122 0 -135 -10z
m167 -94 c10 -4 16 -18 16 -40 0 -32 -2 -34 -35 -34 -33 0 -35 2 -35 33 0 46
14 56 54 41z"/>
<path d="M2007 497 c-16 -11 -17 -33 -15 -207 l3 -195 63 -3 62 -3 0 69 c0 82
2 83 92 73 4 -1 8 -31 10 -68 l3 -68 60 0 60 0 0 109 c0 95 -2 110 -18 120
-51 30 -50 27 -18 101 33 77 30 85 -30 85 -48 0 -63 -14 -99 -92 -42 -93 -60
-91 -60 6 0 58 -3 75 -16 80 -27 10 -79 7 -97 -7z"/>
<path d="M2438 504 c-5 -4 -8 -99 -8 -211 l0 -203 135 0 c207 0 215 8 215 210
0 72 -5 140 -10 151 -21 39 -68 52 -200 57 -69 2 -128 1 -132 -4z m211 -118
c8 -9 11 -45 9 -98 l-3 -83 -52 -3 -53 -3 0 94 c0 51 3 97 7 100 12 13 80 7
92 -7z"/>
<path d="M1460 416 c0 -61 -9 -55 128 -92 34 -9 62 -22 62 -29 0 -7 -39 -23
-92 -37 l-93 -25 -3 -56 c-2 -31 1 -57 5 -57 4 0 66 18 138 39 151 46 165 57
165 135 0 58 -16 88 -57 104 -30 12 -237 72 -247 72 -3 0 -6 -24 -6 -54z"/>
<path d="M1195 346 c-12 -8 -15 -24 -13 -56 l3 -45 95 0 95 0 3 44 c2 24 -1
48 -7 54 -15 15 -157 17 -176 3z"/>
</g>
</svg>
